<?xml version="1.0" encoding="UTF-8"?>
<svg xmlns="http://www.w3.org/2000/svg" xmlns:xlink="http://www.w3.org/1999/xlink" width="3750" height="3750" viewBox="0 0 3750 3750">

<path fill-rule="evenodd" fill="rgb(100%, 63.867188%, 83.984375%)" fill-opacity="1" d="M 3092.140625 1875 C 3092.140625 2197.800781 2963.910156 2507.390625 2735.648438 2735.648438 C 2507.390625 2963.910156 2197.808594 3092.144531 1875 3092.144531 C 1552.191406 3092.144531 1242.609375 2963.910156 1014.351562 2735.648438 C 786.089844 2507.390625 657.855469 2197.800781 657.855469 1875 C 657.855469 1552.191406 786.089844 1242.609375 1014.351562 1014.351562 C 1242.609375 786.089844 1552.191406 657.859375 1875 657.859375 C 2197.808594 657.859375 2507.390625 786.089844 2735.648438 1014.351562 C 2963.910156 1242.609375 3092.140625 1552.191406 3092.140625 1875 Z M 3092.140625 1875 "/>
<path fill-rule="nonzero" fill="rgb(100%, 61.914062%, 18.041992%)" fill-opacity="1" d="M 1259.371094 1622.261719 C 1259.371094 1622.261719 1072.570312 3144.398438 1227.890625 3211.277344 C 1383.21875 3278.15625 2360.628906 2096.429688 2360.628906 2096.429688 C 2039.589844 1853.53125 1673.160156 1695.980469 1259.371094 1622.261719 Z M 1259.371094 1622.261719 "/>
<path fill-rule="nonzero" fill="rgb(79.296875%, 42.747498%, 0%)" fill-opacity="1" d="M 1862.789062 1803.980469 C 1865.429688 1834.371094 1863.929688 1866.070312 1852.171875 1891.828125 C 1818.5 1965.570312 1775.570312 1978.839844 1775.570312 1978.839844 C 1775.570312 1978.839844 1918.03125 2040.910156 1982.808594 2075.519531 C 2047.589844 2110.128906 1518.769531 2761.46875 1414.570312 2899.464844 C 1361.371094 2969.933594 1268.761719 3067.152344 1190.210938 3146.171875 C 1199.550781 3181.058594 1211.789062 3204.347656 1227.890625 3211.277344 C 1383.21875 3278.15625 2360.628906 2096.429688 2360.628906 2096.429688 C 2205.398438 1978.980469 2039.460938 1881.691406 1862.789062 1803.980469 Z M 1862.789062 1803.980469 "/>
<path fill-rule="nonzero" fill="rgb(100%, 91.796875%, 82.421875%)" fill-opacity="1" d="M 1318.820312 1823.269531 L 1239.050781 1802.53125 C 1195.640625 2201.769531 1104.839844 3158.292969 1227.890625 3211.277344 C 1239.46875 3216.261719 1256.078125 3213.574219 1276.039062 3205.695312 C 1260.738281 3143.417969 1249.421875 3101.914062 1227.25 2979.5625 C 1203.28125 2847.222656 1280.351562 1813.800781 1318.820312 1823.269531 Z M 1318.820312 1823.269531 "/>
<path fill-rule="evenodd" fill="rgb(47.851562%, 25.488281%, 0%)" fill-opacity="1" d="M 1255 1659.289062 C 1253.410156 1672.730469 1252.488281 1681.109375 1249.710938 1705.460938 L 1658.808594 1982.21875 L 1309.480469 1904.699219 L 1233.46875 1853.28125 C 1231.101562 1875.808594 1228.539062 1903.53125 1226.019531 1928.378906 L 1292.890625 1943.21875 L 1589.261719 2143.730469 L 1231.980469 2064.441406 L 1213.871094 2052.191406 C 1212.21875 2069.679688 1210.679688 2083.5 1209.03125 2101.550781 L 1215.398438 2102.96875 L 1518.519531 2308.03125 L 1197.28125 2236.75 C 1195.671875 2256.359375 1194.210938 2276.269531 1192.660156 2296.140625 L 1448.980469 2469.539062 L 1184.179688 2410.78125 C 1182.160156 2440.199219 1180.371094 2469.519531 1178.621094 2498.808594 L 1378.230469 2633.851562 L 1173.808594 2588.488281 C 1173.121094 2602.5 1172.46875 2616.410156 1171.871094 2630.261719 L 1471.070312 2696.660156 L 1693.710938 2847.277344 C 1703.371094 2837.285156 1713 2827.320312 1722.71875 2817.15625 L 1580.488281 2720.941406 L 1773.46875 2763.761719 C 1784.351562 2752.1875 1795.179688 2740.46875 1806.058594 2728.78125 L 1487.660156 2658.128906 L 1184.539062 2453.070312 L 1541.820312 2532.351562 L 1816.160156 2717.941406 C 1825.640625 2707.730469 1835.140625 2697.691406 1844.589844 2687.429688 L 1651.238281 2556.628906 L 1911.179688 2614.308594 C 1928.230469 2595.488281 1945.199219 2576.828125 1961.871094 2558.21875 L 1720.78125 2395.121094 L 2043.28125 2466.691406 C 2056.539062 2451.640625 2066.398438 2439.980469 2079.160156 2425.398438 L 1791.519531 2230.808594 L 2140.859375 2308.328125 L 2166.070312 2325.390625 C 2178.308594 2311.191406 2193.820312 2293.621094 2205.160156 2280.398438 L 2157.441406 2269.808594 L 1861.070312 2069.300781 L 2301.398438 2167.019531 C 2315.359375 2150.429688 2322.449219 2142.128906 2331.371094 2131.460938 L 1768.230469 2006.5 Z M 1751.640625 2045.019531 L 2048.019531 2245.53125 L 1698.691406 2168.011719 L 1402.308594 1967.5 Z M 1682.101562 2206.53125 L 1985.21875 2411.601562 L 1627.941406 2332.320312 L 1324.820312 2127.25 Z M 1611.359375 2370.839844 L 1907.730469 2571.339844 L 1558.398438 2493.820312 L 1262.019531 2293.320312 Z M 1170.839844 2652.359375 C 1170.179688 2668.75 1169.589844 2684.828125 1169.070312 2700.898438 L 1308.691406 2795.355469 L 1167.550781 2764.039062 C 1167.261719 2777.90625 1166.691406 2792.523438 1166.539062 2806.019531 L 1401.53125 2858.164062 L 1569.828125 2972.023438 C 1579.558594 2962.570312 1589.730469 2952.238281 1599.628906 2942.441406 L 1510.949219 2882.445312 L 1632.828125 2909.492188 C 1644.261719 2897.980469 1655.519531 2886.746094 1667.109375 2874.894531 L 1418.109375 2819.640625 Z M 1166.289062 2861.441406 C 1166.339844 2878.636719 1166.558594 2895.257812 1166.878906 2911.589844 L 1237.941406 2959.664062 L 1167.671875 2944.070312 C 1168.140625 2958.644531 1168.679688 2972.984375 1169.421875 2986.664062 L 1330.78125 3022.472656 L 1437.039062 3094.359375 C 1447.570312 3085.339844 1458.191406 3076.167969 1469.191406 3066.359375 L 1440.210938 3046.753906 L 1480.839844 3055.769531 C 1492.988281 3044.792969 1505.269531 3033.585938 1517.890625 3021.785156 L 1347.371094 2983.945312 Z M 1166.289062 2861.441406 "/>
<path fill-rule="nonzero" fill="rgb(0%, 0%, 0%)" fill-opacity="1" d="M 1857.71875 1765.878906 C 1672.671875 1686.230469 1475.980469 1627.921875 1267.519531 1590.78125 L 1236.609375 1585.28125 L 1232.039062 1622.558594 C 1232.039062 1622.558594 1185.238281 2003.769531 1157.871094 2393.929688 C 1144.179688 2589.011719 1135.300781 2786.261719 1139.691406 2940.589844 C 1141.890625 3017.753906 1147.289062 3084.09375 1157.710938 3135.347656 C 1168.121094 3186.601562 1181.179688 3226.777344 1214.960938 3241.320312 C 1248.738281 3255.863281 1286.898438 3237.742188 1331.289062 3210.085938 C 1375.679688 3182.429688 1427.589844 3140.765625 1485.148438 3089.335938 C 1600.289062 2986.472656 1737.480469 2844.46875 1869.789062 2700.460938 C 2134.410156 2412.460938 2379.199219 2116.488281 2379.199219 2116.488281 L 2402.921875 2087.808594 L 2378.089844 2069.019531 C 2216.171875 1946.519531 2042.761719 1845.53125 1857.71875 1765.878906 Z M 1831.851562 1825.929688 C 2004.191406 1900.109375 2166.148438 1993.140625 2318.050781 2105.121094 C 2262.441406 2171.789062 2060.75 2411.949219 1835.230469 2657.398438 C 1703.769531 2800.46875 1567.480469 2941.355469 1455.671875 3041.257812 C 1399.761719 3091.207031 1349.828125 3130.898438 1311.039062 3155.066406 C 1272.238281 3179.234375 1245.878906 3183.410156 1240.828125 3181.234375 C 1235.78125 3179.058594 1220.691406 3157.039062 1211.589844 3112.25 C 1202.488281 3067.457031 1197.011719 3003.910156 1194.878906 2928.96875 C 1190.609375 2779.085938 1199.308594 2583.261719 1212.898438 2389.441406 C 1236.199219 2057.410156 1271.988281 1746.261719 1282.28125 1659.480469 C 1476.070312 1696.210938 1659.179688 1751.609375 1831.851562 1825.929688 Z M 1831.851562 1825.929688 "/>
<path fill-rule="evenodd" fill="rgb(100%, 61.914062%, 18.041992%)" fill-opacity="1" d="M 1253.949219 1598.480469 C 1637.421875 1701.390625 2017.21875 1837.988281 2384.980469 2085.46875 C 2429.570312 2115.46875 2455.980469 2165.46875 2433.679688 2217.269531 C 2411.378906 2269.070312 2348.109375 2303.871094 2304.46875 2272.460938 C 1951.429688 2018.378906 1567.539062 1882.359375 1173.441406 1785.46875 C 1121.269531 1772.640625 1102.429688 1705.46875 1124.738281 1653.671875 C 1147.039062 1601.871094 1202.078125 1584.558594 1253.949219 1598.480469 Z M 1253.949219 1598.480469 "/>
<path fill-rule="nonzero" fill="rgb(79.296875%, 42.747498%, 0%)" fill-opacity="1" d="M 1896.078125 1817.859375 C 1884.988281 1812.988281 1873.878906 1808.421875 1862.769531 1803.679688 C 1865.449219 1834.171875 1863.96875 1865.980469 1852.171875 1891.828125 C 1818.5 1965.570312 1775.570312 1978.839844 1775.570312 1978.839844 C 1775.570312 1978.839844 1785.371094 1983.21875 1786.691406 1983.800781 C 1831.890625 2002.988281 1876.789062 2023.359375 1921.351562 2045 C 1924.328125 2046.421875 1926.539062 2047.578125 1929.46875 2048.980469 C 1944.429688 2056.308594 1959.390625 2063.640625 1974.269531 2071.269531 C 1976.769531 2072.570312 1980.488281 2074.28125 1982.808594 2075.519531 C 1983.160156 2075.710938 1983.390625 2076.011719 1983.710938 2076.230469 C 2092.949219 2132.761719 2200.089844 2197.339844 2304.46875 2272.460938 C 2348.121094 2303.871094 2411.378906 2269.070312 2433.679688 2217.269531 C 2455.980469 2165.46875 2429.570312 2115.46875 2384.980469 2085.46875 C 2224.078125 1977.191406 2060.878906 1890.148438 1896.078125 1817.859375 Z M 1896.078125 1817.859375 "/>
<path fill-rule="nonzero" fill="rgb(100%, 91.796875%, 82.421875%)" fill-opacity="1" d="M 1243.808594 1596.539062 C 1195.058594 1587.320312 1145.589844 1605.238281 1124.738281 1653.671875 C 1102.429688 1705.46875 1121.269531 1772.640625 1173.441406 1785.46875 C 1200.089844 1792.019531 1226.691406 1798.800781 1253.25 1805.730469 L 1266.238281 1801.128906 C 1266.238281 1801.128906 1180.800781 1757.398438 1184.621094 1682.769531 C 1186.171875 1652.578125 1212.769531 1622.160156 1243.808594 1596.539062 Z M 1243.808594 1596.539062 "/>
<path fill-rule="evenodd" fill="rgb(0%, 0%, 0%)" fill-opacity="1" d="M 1872.160156 1775.890625 C 1670.269531 1689.980469 1466.328125 1625.429688 1261.859375 1570.550781 C 1231.019531 1562.269531 1198.589844 1562.949219 1169.179688 1574.519531 C 1139.769531 1586.101562 1113.621094 1609.601562 1099.351562 1642.738281 C 1085.070312 1675.910156 1083.96875 1712.621094 1094.828125 1744.609375 C 1105.679688 1776.589844 1130.328125 1804.75 1166.078125 1813.539062 C 1558.480469 1910.011719 1938.710938 2044.949219 2288.011719 2296.328125 C 2318.519531 2318.28125 2356.878906 2316.730469 2387.789062 2302.269531 C 2418.691406 2287.820312 2444.75 2261.449219 2459.070312 2228.199219 C 2473.359375 2195 2472.058594 2159.988281 2460.101562 2131.058594 C 2448.148438 2102.128906 2426.691406 2078.570312 2400.761719 2061.121094 C 2226.839844 1944.089844 2050.300781 1851.679688 1872.160156 1775.890625 Z M 1849.320312 1829.289062 C 2024.820312 1903.960938 2198.339844 1994.828125 2369.199219 2109.808594 C 2387.859375 2122.371094 2401.898438 2138.808594 2408.730469 2155.328125 C 2415.558594 2171.859375 2416.300781 2187.738281 2408.289062 2206.339844 C 2400.308594 2224.878906 2383.589844 2241.808594 2366.378906 2249.859375 C 2349.160156 2257.910156 2334.070312 2258.050781 2320.929688 2248.589844 C 1964.140625 1991.820312 1576.609375 1854.710938 1180.800781 1757.398438 C 1164.378906 1753.359375 1153.519531 1741.519531 1147.488281 1723.769531 C 1141.460938 1706.011719 1142.109375 1683.230469 1150.128906 1664.609375 C 1158.160156 1645.949219 1170.671875 1634.890625 1187.328125 1628.339844 C 1203.980469 1621.789062 1225.019531 1620.769531 1246.050781 1626.410156 C 1449.011719 1680.878906 1650.429688 1744.679688 1849.320312 1829.289062 Z M 1849.320312 1829.289062 "/>
<path fill-rule="evenodd" fill="rgb(100%, 0%, 55.271912%)" fill-opacity="1" d="M 2252.148438 539.929688 C 2223.378906 979.808594 1863.71875 932.089844 1795.308594 913.660156 C 1757.96875 906.359375 1712.730469 937.828125 1685.789062 1000.410156 C 1658.851562 1062.980469 1661.449219 1132.839844 1698.039062 1139.570312 C 1699.449219 1139.839844 1700.828125 1140.230469 1702.238281 1140.5 C 1655.570312 1132.019531 1608.300781 1125.179688 1560.289062 1120.261719 C 1506.570312 1114.738281 1446.789062 1138.890625 1416.328125 1209.628906 C 1385.871094 1280.371094 1397.949219 1363.179688 1450.328125 1375.628906 C 1453.429688 1376.371094 1456.46875 1377.289062 1459.558594 1378.070312 C 1423.070312 1369.519531 1386.390625 1361.441406 1349.28125 1354.359375 C 1286.359375 1342.371094 1217.089844 1369.019531 1184.800781 1444.011719 C 1152.511719 1519 1170.679688 1609.109375 1232.699219 1625.109375 C 1316.609375 1646.738281 1400.320312 1670.761719 1483.789062 1697.351562 C 1509.808594 1728.539062 1530.738281 1766.121094 1535.328125 1809.351562 C 1549.429688 1942.089844 1330.621094 2045.78125 1495.039062 2111.300781 C 1677.539062 2184.019531 1597.410156 1983.859375 1678.761719 1868.46875 C 1700.96875 1836.960938 1727.230469 1812.710938 1753.671875 1793.808594 C 1805.609375 1814.550781 1857.410156 1836.671875 1909.109375 1860.128906 C 1905.941406 1903.289062 1893.601562 1950.351562 1861.539062 1989.390625 C 1778.308594 2090.769531 1765.390625 2206.589844 1842.988281 2234.730469 C 1920.589844 2262.871094 1973.28125 2158.890625 1988.738281 2049.441406 C 1995.390625 2002.339844 2039.898438 1969.628906 2088.410156 1947.570312 C 2186.179688 1998.820312 2283.460938 2055.648438 2380.140625 2119.160156 C 2433.679688 2154.320312 2512.328125 2104.511719 2544.621094 2029.511719 C 2576.910156 1954.519531 2549.609375 1884.53125 2496.71875 1848.421875 C 2467.179688 1828.25 2437.371094 1808.710938 2407.429688 1789.480469 C 2408.910156 1789.5 2410.339844 1789.609375 2411.820312 1789.621094 C 2465.699219 1790.019531 2525.320312 1770.988281 2555.78125 1700.25 C 2586.238281 1629.511719 2562.820312 1569.238281 2521.78125 1534.25 C 2497.238281 1513.320312 2472.378906 1493.519531 2447.371094 1474.210938 C 2518.859375 1434.71875 2600.46875 1362.890625 2628.828125 1260.910156 C 2681.589844 956.910156 2499.019531 741.429688 2252.148438 539.929688 Z M 2252.148438 539.929688 "/>
<path fill-rule="nonzero" fill="rgb(100%, 64.646912%, 84.375%)" fill-opacity="1" d="M 2264.441406 575.628906 L 2248.730469 577.210938 C 2202.53125 976.960938 1861.71875 931.558594 1795.308594 913.660156 C 1757.96875 906.359375 1712.730469 937.828125 1685.789062 1000.410156 C 1658.851562 1062.980469 1661.449219 1132.839844 1698.039062 1139.570312 C 1699.449219 1139.839844 1700.828125 1140.230469 1702.238281 1140.5 C 1655.570312 1132.019531 1608.300781 1125.191406 1560.289062 1120.261719 C 1506.570312 1114.738281 1446.789062 1138.890625 1416.328125 1209.628906 C 1385.871094 1280.371094 1397.949219 1363.191406 1450.328125 1375.628906 C 1453.441406 1376.371094 1456.46875 1377.289062 1459.558594 1378.070312 C 1423.070312 1369.519531 1386.390625 1361.441406 1349.28125 1354.359375 C 1286.359375 1342.371094 1217.089844 1369.019531 1184.800781 1444.011719 C 1152.511719 1519 1170.679688 1609.109375 1232.699219 1625.109375 C 1286.71875 1639.03125 1340.609375 1654.339844 1394.449219 1670.28125 L 1412.089844 1666.570312 C 1412.089844 1666.570312 1193.359375 1626.640625 1232.460938 1467.839844 C 1265.121094 1335.199219 1607.429688 1418.191406 1607.429688 1418.191406 C 1607.429688 1418.191406 1414.039062 1416.230469 1459.738281 1246.410156 C 1492.089844 1126.210938 1745.039062 1156.828125 1745.039062 1156.828125 C 1745.039062 1156.828125 1668.621094 1072.019531 1739.410156 1001.359375 C 1801.148438 939.730469 2004.25 1066.558594 2157.109375 910.71875 C 2309.96875 754.878906 2264.441406 575.628906 2264.441406 575.628906 Z M 2264.441406 575.628906 "/>
<path fill-rule="nonzero" fill="rgb(73.242188%, 0%, 40.380859%)" fill-opacity="1" d="M 2303.910156 583.390625 C 2296.019531 581.890625 2259.511719 574.828125 2259.511719 574.828125 C 2259.511719 574.828125 2522.449219 830.410156 2505.609375 1081.890625 C 2485.640625 1380.230469 2221.96875 1323.910156 2221.96875 1323.910156 C 2221.96875 1323.910156 2388.308594 1384.980469 2324.609375 1600.320312 C 2297.101562 1693.351562 2129.460938 1642.960938 2129.460938 1642.960938 C 2129.460938 1642.960938 2283.550781 1793.75 2273.558594 1865.96875 C 2263.570312 1938.199219 2098.71875 1941.101562 2098.71875 1941.101562 L 2113.921875 1961.339844 C 2203.101562 2009.019531 2291.878906 2061.179688 2380.140625 2119.160156 C 2433.679688 2154.320312 2512.328125 2104.511719 2544.621094 2029.511719 C 2576.910156 1954.519531 2549.609375 1884.53125 2496.71875 1848.421875 C 2467.179688 1828.25 2437.371094 1808.710938 2407.429688 1789.480469 C 2408.910156 1789.5 2410.339844 1789.609375 2411.820312 1789.621094 C 2465.699219 1790.019531 2525.320312 1770.988281 2555.78125 1700.25 C 2586.238281 1629.511719 2562.820312 1569.238281 2521.78125 1534.25 C 2497.238281 1513.320312 2472.378906 1493.519531 2447.371094 1474.210938 C 2518.871094 1434.71875 2600.46875 1362.890625 2628.828125 1260.910156 C 2677.820312 978.640625 2523.789062 772.699219 2303.910156 583.390625 Z M 2303.910156 583.390625 "/>
<path fill-rule="nonzero" fill="rgb(100%, 64.646912%, 84.375%)" fill-opacity="1" d="M 1507.28125 1680.390625 C 1481.960938 1669.398438 1461.421875 1665.378906 1461.421875 1665.378906 C 1461.421875 1665.378906 1464.351562 1674.730469 1465.648438 1691.851562 C 1471.691406 1693.75 1477.75 1695.429688 1483.789062 1697.351562 C 1509.808594 1728.539062 1530.738281 1766.121094 1535.328125 1809.351562 C 1549.429688 1942.089844 1330.621094 2045.78125 1495.039062 2111.300781 C 1526.628906 2123.890625 1550.210938 2128.140625 1568.261719 2126.230469 C 1592.320312 2115.121094 1608.949219 2096.679688 1615.601562 2088.421875 C 1616.25 2086.910156 1616.960938 2085.480469 1617.570312 2083.898438 C 1613.671875 2083.28125 1521.320312 2083.160156 1500.710938 2049.089844 C 1468.339844 1995.570312 1588.269531 1928.460938 1580.070312 1794.308594 C 1575.730469 1723.519531 1549.480469 1698.71875 1507.28125 1680.390625 Z M 1507.28125 1680.390625 "/>
<path fill-rule="nonzero" fill="rgb(100%, 64.646912%, 84.375%)" fill-opacity="1" d="M 1913.039062 1836.089844 L 1901.570312 1856.808594 C 1904.078125 1857.941406 1906.601562 1858.988281 1909.109375 1860.128906 C 1905.941406 1903.289062 1893.601562 1950.351562 1861.539062 1989.390625 C 1785.5 2082.019531 1768.390625 2186.488281 1825.148438 2225.328125 L 1888.808594 2238.621094 C 1888.808594 2238.621094 1828.921875 2199.890625 1832.171875 2140.351562 C 1834.96875 2089.070312 1929.351562 1979.011719 1950.808594 1898.53125 C 1966.429688 1839.929688 1913.039062 1836.089844 1913.039062 1836.089844 Z M 1913.039062 1836.089844 "/>
<path fill-rule="evenodd" fill="rgb(0%, 0%, 0%)" fill-opacity="1" d="M 2270.140625 506.140625 C 2263.589844 500.789062 2253.46875 503.820312 2244.308594 513.859375 C 2235.148438 523.898438 2228.679688 539.070312 2227.789062 552.570312 C 2221.050781 655.730469 2196.820312 720.609375 2165.410156 766.789062 C 2134 812.96875 2090.621094 844.53125 2042.941406 863.558594 C 1947.609375 901.628906 1840.78125 886.230469 1809.039062 877.679688 C 1808.789062 877.609375 1808.519531 877.539062 1808.25 877.488281 C 1762.898438 868.621094 1701.691406 910.871094 1666.679688 992.179688 C 1651.308594 1027.871094 1643.710938 1065.191406 1643.660156 1097.109375 C 1618.859375 1093.570312 1593.929688 1090.378906 1568.761719 1087.800781 C 1538.628906 1084.699219 1506.179688 1089.558594 1474.949219 1106.960938 C 1443.71875 1124.359375 1413.609375 1156.121094 1394.601562 1200.28125 C 1376.21875 1242.96875 1370.351562 1289.339844 1376.921875 1327.628906 C 1370.53125 1326.359375 1364.210938 1324.929688 1357.789062 1323.710938 C 1322.289062 1316.941406 1284.410156 1320.730469 1249.171875 1338.261719 C 1213.921875 1355.800781 1181.390625 1388.46875 1161.75 1434.089844 C 1122.570312 1525.089844 1144.269531 1635.191406 1222.929688 1655.480469 C 1304.558594 1676.519531 1385.96875 1699.871094 1467.171875 1725.621094 C 1489.410156 1753.519531 1505.71875 1785.488281 1509.21875 1818.410156 C 1511.75 1842.210938 1504.351562 1864.390625 1490.421875 1890.070312 C 1476.480469 1915.75 1456.359375 1942.371094 1438.820312 1969.820312 C 1421.289062 1997.28125 1403.148438 2029.460938 1407.949219 2065.109375 C 1412.75 2100.769531 1438.71875 2123.300781 1482.878906 2140.890625 C 1530.929688 2160.039062 1565.398438 2164.699219 1596.390625 2148.199219 C 1611.890625 2139.941406 1624.800781 2125.570312 1633.199219 2110.371094 C 1641.609375 2095.191406 1646.410156 2079.410156 1650.121094 2063.570312 C 1664.929688 2000.210938 1666.71875 1929.679688 1697.738281 1885.679688 C 1714 1862.609375 1733.019531 1843.730469 1752.988281 1828.058594 C 1795.628906 1845.269531 1838.179688 1863.410156 1880.671875 1882.460938 C 1876.039062 1913.78125 1865.46875 1944.121094 1844.269531 1969.929688 C 1798.769531 2025.371094 1770.640625 2086.148438 1765.789062 2141.808594 C 1760.941406 2197.460938 1784.128906 2247.398438 1831.410156 2264.539062 C 1878.878906 2281.75 1928.171875 2254.601562 1958.441406 2210.46875 C 1988.71875 2166.339844 2006.328125 2108.191406 2014.671875 2049.160156 C 2016.519531 2036.101562 2022.890625 2025.121094 2036.828125 2012.109375 C 2048.609375 2001.121094 2065.328125 1990.5 2083.75 1981.289062 C 2177.820312 2030.960938 2271.421875 2085.800781 2364.449219 2146.910156 C 2398.609375 2169.351562 2441.289062 2164.339844 2478.269531 2143.128906 C 2515.25 2121.921875 2548.070312 2084.96875 2567.679688 2039.441406 C 2587.289062 1993.871094 2588.96875 1947.628906 2577.609375 1909.710938 C 2566.25 1871.789062 2542.820312 1841.429688 2512.710938 1820.871094 C 2507.441406 1817.269531 2502.101562 1813.820312 2496.820312 1810.25 C 2529.398438 1788.609375 2558.871094 1752.890625 2577.511719 1709.601562 C 2596.519531 1665.449219 2598.929688 1621.71875 2590.128906 1587.03125 C 2581.328125 1552.339844 2562.539062 1525.398438 2539.46875 1505.730469 C 2517.851562 1487.300781 2495.980469 1469.691406 2473.988281 1452.5 C 2477.238281 1451.578125 2480.410156 1450.890625 2483.699219 1449.808594 C 2514.101562 1439.800781 2546.261719 1422.921875 2576.730469 1392.558594 C 2607.191406 1362.199219 2635.609375 1315.859375 2651.089844 1260.199219 C 2651.671875 1258.128906 2652.128906 1256.070312 2652.480469 1254.050781 C 2681.25 1088.339844 2645.570312 951.761719 2574.011719 831.929688 C 2502.449219 712.109375 2394.078125 607.300781 2270.140625 506.140625 Z M 2267.898438 601.769531 C 2376.449219 693.410156 2469.769531 788.359375 2531.691406 892.03125 C 2599.429688 1005.460938 2628.699219 1127.640625 2605.671875 1264.660156 C 2595.921875 1298.160156 2582.71875 1318.671875 2564.238281 1337.089844 C 2545.199219 1356.058594 2520.21875 1370.359375 2494.800781 1378.730469 C 2469.371094 1387.101562 2443.660156 1389.808594 2423.050781 1388.941406 C 2413.339844 1388.539062 2404.710938 1387.011719 2397.839844 1385.300781 C 2383.449219 1410.480469 2372.96875 1435.46875 2372.339844 1460.410156 C 2416.949219 1492.128906 2460.941406 1525.96875 2504.078125 1562.761719 C 2522.058594 1578.089844 2535.488281 1598.769531 2541.050781 1620.648438 C 2546.601562 1642.53125 2545.5 1664.308594 2534.050781 1690.890625 C 2522.488281 1717.730469 2502.730469 1741.511719 2482.589844 1754.609375 C 2462.660156 1767.570312 2443.808594 1770.441406 2428.578125 1760.300781 C 2416.199219 1781.941406 2406.628906 1803.449219 2403.769531 1824.910156 C 2429.558594 1841.609375 2455.230469 1858.558594 2480.730469 1875.96875 C 2503.511719 1891.519531 2520.179688 1914.210938 2527.621094 1939.058594 C 2535.070312 1963.910156 2534.238281 1990.160156 2521.570312 2019.589844 C 2508.878906 2049.050781 2486.230469 2074.511719 2462.429688 2088.160156 C 2438.628906 2101.820312 2415.210938 2104.140625 2395.839844 2091.410156 C 2298.578125 2027.53125 2200.730469 1970.371094 2102.410156 1918.828125 C 2096.609375 1915.789062 2089.621094 1915.800781 2082.910156 1918.839844 C 2056.851562 1930.691406 2031.039062 1945.46875 2008.929688 1966.109375 C 1986.820312 1986.75 1967.621094 2015.671875 1962.808594 2049.710938 C 1955.691406 2100.140625 1939.230469 2148.699219 1919.898438 2176.890625 C 1900.558594 2205.078125 1884.699219 2215.839844 1854.570312 2204.921875 C 1824.25 2193.929688 1815.089844 2171.878906 1818.109375 2137.25 C 1821.128906 2102.621094 1841.089844 2054.800781 1878.808594 2008.859375 C 1917.339844 1961.929688 1931.769531 1905.539062 1935.308594 1857.339844 C 1936.191406 1845.28125 1931.039062 1834.949219 1922.109375 1830.890625 C 1870.148438 1807.308594 1818.058594 1785.078125 1765.839844 1764.21875 C 1758.78125 1761.398438 1750.429688 1762.789062 1743.128906 1768.011719 C 1714.289062 1788.628906 1684.910156 1815.609375 1659.769531 1851.269531 C 1609.449219 1922.640625 1610.621094 2009.890625 1599.539062 2057.28125 C 1596.769531 2069.121094 1593.519531 2078.101562 1590.628906 2083.320312 C 1587.738281 2088.539062 1586.121094 2090.238281 1582.191406 2092.328125 C 1574.339844 2096.511719 1550.390625 2098.921875 1507.191406 2081.710938 C 1469.140625 2066.539062 1460.808594 2051.539062 1459.949219 2045.179688 C 1459.089844 2038.808594 1463.949219 2024.488281 1478.800781 2001.238281 C 1493.648438 1977.988281 1515.308594 1949.699219 1533.300781 1916.558594 C 1551.289062 1883.410156 1565.960938 1842.859375 1561.429688 1800.289062 C 1555.941406 1748.570312 1531.949219 1707.140625 1504.058594 1673.710938 C 1501.511719 1670.640625 1498.28125 1668.449219 1494.628906 1667.28125 C 1410.789062 1640.578125 1326.730469 1616.460938 1242.46875 1594.730469 C 1197.089844 1583.03125 1182.449219 1512.929688 1207.851562 1453.941406 C 1220.5 1424.558594 1238.75 1406.410156 1261.941406 1394.871094 C 1285.128906 1383.328125 1313.351562 1379.789062 1340.761719 1385.019531 C 1369.359375 1390.46875 1397.710938 1396.5 1425.929688 1402.839844 C 1430.25 1404.851562 1434.769531 1406.558594 1439.628906 1407.71875 C 1538.890625 1431.308594 1637.570312 1459.011719 1735.558594 1492.019531 C 1791.171875 1511.609375 1846.140625 1532.691406 1900.339844 1555.621094 C 1912.238281 1560.660156 1924.109375 1565.769531 1935.949219 1570.960938 C 1971.441406 1586.53125 2006.539062 1603.011719 2041.460938 1619.941406 C 2094.828125 1642.410156 2161.351562 1672.96875 2245.011719 1714.371094 C 2192.75 1647.519531 2123.640625 1591.679688 2057.019531 1547.621094 C 1861.109375 1455.769531 1661.949219 1391.308594 1461.03125 1343.550781 C 1424.449219 1334.859375 1414.910156 1272.75 1438.058594 1218.988281 C 1449.5 1192.398438 1464.511719 1176.71875 1484.21875 1165.738281 C 1503.929688 1154.761719 1528.230469 1150.289062 1551.820312 1152.710938 C 1591.199219 1156.761719 1630.050781 1162.179688 1668.511719 1168.621094 C 1673.359375 1172.160156 1678.921875 1174.609375 1685.21875 1175.769531 C 1794.398438 1195.871094 1904.480469 1223.109375 2012.648438 1263.878906 C 2013.570312 1264.25 2014.480469 1264.628906 2015.410156 1265 C 2065.679688 1278.660156 2132 1300.410156 2219.460938 1333.460938 C 2191.078125 1294.339844 2115.949219 1240.609375 2037.269531 1190.769531 C 1929.070312 1150.410156 1819.308594 1123.359375 1710.851562 1103.378906 C 1688.488281 1099.269531 1686.269531 1051.890625 1704.898438 1008.628906 C 1723.75 964.851562 1752.941406 944.160156 1782.230469 949.808594 C 1819.46875 959.71875 1926.050781 976.96875 2034.25 933.769531 C 2088.640625 912.050781 2144.839844 874.210938 2191.101562 806.191406 C 2227.058594 753.308594 2254.050781 684.589844 2267.898438 601.769531 Z M 2267.898438 601.769531 "/>
</svg>
